<?xml version="1.0" encoding="UTF-8" standalone="no"?>
<svg
   xmlns:dc="http://purl.org/dc/elements/1.1/"
   xmlns:cc="http://creativecommons.org/ns#"
   xmlns:rdf="http://www.w3.org/1999/02/22-rdf-syntax-ns#"
   xmlns:svg="http://www.w3.org/2000/svg"
   xmlns="http://www.w3.org/2000/svg"
   xmlns:sodipodi="http://sodipodi.sourceforge.net/DTD/sodipodi-0.dtd"
   xmlns:inkscape="http://www.inkscape.org/namespaces/inkscape"
   version="1.1"
   id="svg938"
   width="384"
   height="348"
   viewBox="0 0 384 348"
   sodipodi:docname="SuspiciousFilesFolder.svg"
   inkscape:version="1.0.2-2 (e86c870879, 2021-01-15)">
  <metadata
     id="metadata944">
    <rdf:RDF>
      <cc:Work
         rdf:about="">
        <dc:format>image/svg+xml</dc:format>
        <dc:type
           rdf:resource="http://purl.org/dc/dcmitype/StillImage" />
        <dc:title></dc:title>
      </cc:Work>
    </rdf:RDF>
  </metadata>
  <defs
     id="defs942" />
  <sodipodi:namedview
     pagecolor="#ffffff"
     bordercolor="#666666"
     borderopacity="1"
     objecttolerance="10"
     gridtolerance="10"
     guidetolerance="10"
     inkscape:pageopacity="0"
     inkscape:pageshadow="2"
     inkscape:window-width="1600"
     inkscape:window-height="837"
     id="namedview940"
     showgrid="false"
     inkscape:zoom="1"
     inkscape:cx="352.18667"
     inkscape:cy="209.51386"
     inkscape:window-x="-8"
     inkscape:window-y="-8"
     inkscape:window-maximized="1"
     inkscape:current-layer="g946" />
  <g
     inkscape:groupmode="layer"
     inkscape:label="Image"
     id="g946">
    <path
       style="fill:#770023;stroke-width:1;fill-opacity:1"
       d="m 42.099081,343.42604 c -2.19386,-2.4242 -2.28291,-3.52205 -0.89225,-11 3.88462,-20.88852 19.40037,-39.81759 41.6727,-50.84033 15.10253,-7.47435 21.502829,-8.85184 25.273519,-5.43942 3.26148,2.9516 3.39669,7.54828 0.30317,10.30651 -1.28334,1.14423 -6.04464,3.57947 -10.580679,5.41163 -11.0357,4.45746 -21.8973,11.83042 -28.55808,19.3855 -6.59794,7.48382 -9.55383,13.04206 -12.53772,23.57587 -1.24012,4.37792 -3.20991,8.70987 -4.37732,9.62653 -3.13924,2.46499 -7.54052,2.02659 -10.30334,-1.02629 z m 288.832789,0.86444 c -0.83464,-1.00568 -2.47503,-5.05568 -3.64529,-9 -5.7818,-19.48723 -16.00978,-30.97013 -36.16408,-40.60125 -7.14979,-3.41667 -13.89962,-6.65322 -14.99962,-7.19231 -2.94257,-1.44213 -3.25757,-8.59653 -0.4999,-11.35421 3.21225,-3.21224 10.28558,-2.04579 22.22866,3.66568 23.38722,11.18434 38.68755,28.4218 44.27759,49.88341 2.5578,9.82001 2.52129,10.56623 -0.67301,13.76053 -3.07776,3.07776 -8.31922,3.49518 -10.52435,0.83815 z M 180.78955,308.02057 c -1.46667,-0.34852 -6.74652,-1.5659 -11.73301,-2.70528 -24.88744,-5.68661 -48.22248,-23.08808 -64.56225,-48.14552 -10.410769,-15.96517 -17.354879,-33.19516 -21.918119,-54.3841 -2.69682,-12.52242 -2.31697,-49.53843 0.64965,-63.30775 2.8541,-13.24704 10.46012,-34.14008 12.29242,-33.76613 0.69922,0.14271 7.686749,2.69425 15.527849,5.6701 17.51763,6.64829 41.09191,12.8247 57.06855,14.95185 7.78635,1.03668 12.00824,2.17848 12.00824,3.24758 0,0.90683 0.61486,1.85374 1.36636,2.10424 1.51634,0.50545 5.57179,31.15233 8.12939,61.43344 0.9136,10.81667 2.02233,19.66667 2.46387,19.66667 0.44153,0 1.53488,-7.65 2.42966,-17 1.72238,-17.99768 5.40331,-41.37788 9.00935,-57.22475 l 2.175,-9.55807 6.87985,-0.85862 c 27.01244,-3.37121 50.29438,-8.75456 66.02962,-15.26765 5.39902,-2.23475 10.32805,-3.74698 10.95337,-3.36051 1.52425,0.94204 8.64893,23.42093 10.33909,32.62062 9.44603,51.41522 -6.75276,105.26798 -41.58101,138.2358 -12.30523,11.64794 -29.28469,21.30898 -44.19455,25.14599 -8.19472,2.10889 -28.55625,3.63729 -33.33333,2.50209 z M 3.9839906,205.98011 c -3.47691998,-3.47692 -2.8449,-7.77928 2.85584,-19.44087 8.3850104,-17.15259 28.0663104,-29.29256 54.8228904,-33.81629 9.67338,-1.63548 13.23781,-0.71263 15.80985,4.09328 1.01411,1.89488 0.96657,3.47965 -0.16905,5.6361 -2.02892,3.85275 -3.74608,4.95434 -7.76212,4.97959 -5.46277,0.0344 -20.34248,4.14808 -28.08518,7.76461 -10.21724,4.77236 -20.32603,15.20164 -23.24102,23.97784 -3.21149,9.66892 -8.7292804,12.30767 -14.2312104,6.80574 z m 367.0976394,1.90877 c -0.93935,-0.37745 -3.80288,-5.101 -6.36341,-10.49679 -5.23234,-11.02609 -11.55272,-17.11706 -23.35516,-22.5074 -8.33479,-3.80661 -21.43488,-7.43236 -26.85364,-7.43236 -4.33651,0 -9.0532,-4.16798 -9.0532,-8 0,-1.46666 1.26145,-3.92812 2.80324,-5.4699 2.43676,-2.43676 3.7535,-2.6845 10.07226,-1.89503 27.80223,3.47367 50.86119,17.198 59.41844,35.36493 5.37676,11.41479 5.65223,14.17504 1.79912,18.02815 -3.24928,3.24928 -5.07945,3.76983 -8.46765,2.4084 z M 180.12288,121.3536 c -1.83333,-0.31699 -7.83333,-1.21483 -13.33333,-1.9952 -22.25215,-3.15726 -67.999999,-17.74609 -67.999999,-21.684957 0,-0.86718 2.505489,-5.47168 5.567749,-10.23223 8.1021,-12.595391 27.75244,-31.541281 39.40138,-37.988872 9.57502,-5.299681 9.63602,-5.368773 9.66667,-10.949983 0.10869,-19.782158 17.55592,-36.5500165 38.03087,-36.5500165 20.05882,0 35.39273,14.2537865 37.55133,34.9062315 0.83855,8.022771 0.89137,8.106516 7.09713,11.251211 17.266,8.749348 35.14722,26.8034 47.0569,47.511749 l 3.548,6.169187 -7.62668,3.40373 c -27.06658,12.07963 -43.02446,15.63644 -72.96002,16.2619 -12.46666,0.26047 -24.16666,0.21423 -26,-0.10275 z M 80.122881,84.376383 c -25.39356,-9.681285 -40.18666,-24.715425 -46.17173,-46.924042 -3.15672,-11.713557 -1.95505,-16.703431 4.48287,-18.614837 3.82138,-1.134563 9.68886,4.419234 9.68886,9.170881 0,6.829405 5.68311,18.640088 12.373,25.713657 8.3706,8.850679 15.99084,13.322714 30.29367,17.77824 8.68837,2.706544 11.781579,4.321751 13.254019,6.920961 1.70495,3.00966 1.66406,3.78213 -0.36407,6.87746 -3.13398,4.78305 -9.216339,4.5449 -23.556619,-0.92232 z m 198.933339,2.80929 c -2.10132,-2.10132 -2.0567,-9.71612 0.0667,-11.37763 0.91667,-0.717287 4.66667,-2.02969 8.33334,-2.916453 11.14566,-2.695517 25.44553,-10.3451 32.4699,-17.369472 7.5541,-7.554092 11.6028,-15.18033 13.51104,-25.449705 1.98756,-10.696209 7.71403,-14.271281 14.35239,-8.960293 3.7766,3.021448 0.73844,19.668824 -5.77293,31.632362 -4.75606,8.738443 -17.62578,20.816406 -27.92939,26.211151 -15.95832,8.35543 -31.30107,11.95999 -35.03101,8.23004 z"
       id="path1511" />
  </g>
</svg>
