<?xml version="1.0" encoding="UTF-8" standalone="no"?>
<svg
   xmlns:dc="http://purl.org/dc/elements/1.1/"
   xmlns:cc="http://creativecommons.org/ns#"
   xmlns:rdf="http://www.w3.org/1999/02/22-rdf-syntax-ns#"
   xmlns:svg="http://www.w3.org/2000/svg"
   xmlns="http://www.w3.org/2000/svg"
   xmlns:sodipodi="http://sodipodi.sourceforge.net/DTD/sodipodi-0.dtd"
   xmlns:inkscape="http://www.inkscape.org/namespaces/inkscape"
   width="636"
   height="772"
   version="1.1"
   id="svg4850"
   sodipodi:docname="UsbCleaner.svg"
   inkscape:version="1.0.2-2 (e86c870879, 2021-01-15)"
   inkscape:export-filename="D:\95 Backup\BacBackup\UsbCleaner\UsbCleaner.png"
   inkscape:export-xdpi="38.64151"
   inkscape:export-ydpi="38.64151">
  <metadata
     id="metadata4856">
    <rdf:RDF>
      <cc:Work
         rdf:about="">
        <dc:format>image/svg+xml</dc:format>
        <dc:type
           rdf:resource="http://purl.org/dc/dcmitype/StillImage" />
        <dc:title></dc:title>
      </cc:Work>
    </rdf:RDF>
  </metadata>
  <defs
     id="defs4854" />
  <sodipodi:namedview
     pagecolor="#ffffff"
     bordercolor="#666666"
     borderopacity="1"
     objecttolerance="10"
     gridtolerance="10"
     guidetolerance="10"
     inkscape:pageopacity="0"
     inkscape:pageshadow="2"
     inkscape:window-width="1600"
     inkscape:window-height="837"
     id="namedview4852"
     showgrid="false"
     inkscape:zoom="0.30569948"
     inkscape:cx="857.29662"
     inkscape:cy="356.52065"
     inkscape:window-x="-8"
     inkscape:window-y="-8"
     inkscape:window-maximized="1"
     inkscape:current-layer="svg4850"
     inkscape:document-rotation="0" />
  <path
     id="path5414"
     style="color:#000000;font-style:normal;font-variant:normal;font-weight:normal;font-stretch:normal;font-size:medium;line-height:normal;font-family:sans-serif;font-variant-ligatures:normal;font-variant-position:normal;font-variant-caps:normal;font-variant-numeric:normal;font-variant-alternates:normal;font-variant-east-asian:normal;font-feature-settings:normal;font-variation-settings:normal;text-indent:0;text-align:start;text-decoration:none;text-decoration-line:none;text-decoration-style:solid;text-decoration-color:#000000;letter-spacing:normal;word-spacing:normal;text-transform:none;writing-mode:lr-tb;direction:ltr;text-orientation:mixed;dominant-baseline:auto;baseline-shift:baseline;text-anchor:start;white-space:normal;shape-padding:0;shape-margin:0;inline-size:0;clip-rule:nonzero;display:inline;overflow:visible;visibility:visible;isolation:auto;mix-blend-mode:normal;color-interpolation:sRGB;color-interpolation-filters:linearRGB;solid-color:#000000;solid-opacity:1;vector-effect:none;fill:#85212b;fill-opacity:1;fill-rule:nonzero;stroke:none;stroke-width:1.08696;stroke-linecap:butt;stroke-linejoin:miter;stroke-miterlimit:4;stroke-dasharray:none;stroke-dashoffset:0;stroke-opacity:1;color-rendering:auto;image-rendering:auto;shape-rendering:auto;text-rendering:auto;enable-background:accumulate;stop-color:#000000"
     d="M 321.05664 6.6191406 C 319.61664 6.6471406 318.17692 6.9463681 316.82812 7.5175781 C 309.90373 10.977108 304.15474 16.449787 297.74414 20.787109 C 214.38216 79.77984 121.06118 124.13396 22.626953 145.92383 C 16.656803 146.90489 11.593043 152.24988 11.470703 158.75586 C 7.7760635 227.09448 13.549676 296.12911 30.041016 362.40234 C 52.600386 454.64787 95.49336 540.93022 152.69922 614.50977 C 195.02863 668.77792 244.40318 717.26245 299.99414 756.0918 C 307.21214 760.45494 315.33613 769.02779 324.14453 763.68359 C 375.16003 731.69585 420.37711 690.12927 460.72461 644.38086 C 526.10271 569.35553 575.84657 478.6848 602.07617 380.42383 C 621.77277 307.67043 628.64803 231.30322 624.39062 155.89062 C 624.21933 148.73922 617.97936 144.03881 611.78906 143.10938 C 509.46443 120.39007 413.01322 72.26706 327.86523 8.7304688 C 325.86193 7.2782387 323.45664 6.5725006 321.05664 6.6191406 z M 321.0625 37.027344 L 321.06836 37.027344 C 404.82176 98.705077 499.48649 144.83974 599.33984 168.35938 C 601.68874 233.59991 595.79365 299.35781 579.49805 362.42969 C 554.22265 462.18807 504.01125 554.32868 437.18945 629.56055 C 401.75984 669.93894 361.88067 706.08369 318.00977 735.87695 C 268.23813 701.38492 223.8994 658.63102 184.82422 611.35938 C 120.22906 533.0036 72.517453 438.46166 50.814453 336.92188 C 38.825203 282.49883 34.689156 226.37145 36.597656 170.58008 C 138.55525 146.46664 235.08241 99.298876 321.0625 37.027344 z M 320.89062 73.533203 C 320.89062 73.533203 320.89258 73.535156 320.89258 73.535156 C 320.89358 73.534301 320.89548 73.534103 320.89648 73.533203 L 320.89062 73.533203 z M 320.89258 73.535156 C 244.72087 129.99644 158.44745 172.36146 67.134766 192.57617 C 65.006056 237.93732 67.109962 283.63517 75.257812 328.27344 C 92.556596 427.64456 138.60535 520.30163 202.61328 595.04297 C 236.45233 634.05304 274.25505 669.65593 316.80469 697.79688 C 414.21102 631.472 493.51093 533.80547 535.64453 419.38281 C 562.53478 346.86177 573.00798 268.11727 568.92188 190.48438 C 479.56575 170.88917 394.95616 129.53223 320.89258 73.535156 z M 318.16797 139.33398 C 327.95217 159.34477 337.91368 179.25407 347.875 199.16602 C 340.76325 199.40493 333.64918 199.52731 326.51758 199.39062 C 326.63217 269.0711 326.47517 338.75139 326.64844 408.41211 C 347.50622 388.33462 367.51461 367.44621 388.23438 347.23047 C 388.52776 324.45139 388.49626 301.67373 388.33984 278.875 C 381.26694 278.7979 374.21323 278.73905 367.17969 278.78125 C 366.81979 258.94603 367.11279 239.09134 366.84961 219.23633 C 386.46798 219.01415 406.08756 219.18903 425.68555 219.14453 C 426.95485 238.9796 425.71389 258.87349 425.97461 278.72852 C 418.90169 278.73094 411.84804 278.79062 404.77539 279.1875 C 405.37415 303.52715 404.86724 327.86728 405.0293 352.20703 C 379.15466 378.48916 352.94519 404.43469 326.89258 430.53906 C 326.25248 478.21121 326.74477 525.90418 326.69727 573.57617 C 340.07366 578.9269 351.25885 593.22807 347.41016 608.10547 C 344.86543 623.97046 328.01761 635.72668 312.31055 631.95703 C 294.44956 628.6818 282.43185 606.8749 291.12109 590.43555 C 293.96366 581.66308 303.13069 578.30278 309.43164 572.94727 C 309.62442 559.67101 310.86709 546.01959 308.88867 532.94141 C 284.10761 507.46173 258.39708 482.83213 233.65625 457.27344 C 230.69184 455.06145 231.32533 451.18678 231.12695 447.98633 C 231.26946 425.58253 231.34824 403.13993 231.09961 380.73633 C 212.01375 375.16965 202.89932 349.82606 215.63867 334.15625 C 226.44127 318.60543 252.24136 318.28309 263.13086 333.94727 C 276.52931 349.39345 266.89582 375.51216 247.63477 380.55469 C 247.99577 403.66952 246.63787 426.9239 248.26367 449.91992 C 268.51879 470.63938 289.18921 490.98511 309.74023 511.4082 C 309.71232 407.29243 309.94362 303.15497 309.54688 199.01953 C 302.71247 199.25839 295.77841 199.9899 289.14062 198.0957 C 297.98659 178.13973 308.63028 158.99382 318.16797 139.33398 z " />
</svg>
