<?xml version="1.0" encoding="UTF-8" standalone="no"?>
<svg
   width="636"
   height="772"
   version="1.1"
   id="svg4850"
   sodipodi:docname="UsbCleanerLogo.svg"
   inkscape:version="1.2.2 (b0a8486541, 2022-12-01)"
   inkscape:export-filename="D:\95 Backup\BacBackup\UsbCleaner\UsbCleaner.png"
   inkscape:export-xdpi="38.64151"
   inkscape:export-ydpi="38.64151"
   xml:space="preserve"
   xmlns:inkscape="http://www.inkscape.org/namespaces/inkscape"
   xmlns:sodipodi="http://sodipodi.sourceforge.net/DTD/sodipodi-0.dtd"
   xmlns="http://www.w3.org/2000/svg"
   xmlns:svg="http://www.w3.org/2000/svg"
   xmlns:rdf="http://www.w3.org/1999/02/22-rdf-syntax-ns#"
   xmlns:cc="http://creativecommons.org/ns#"
   xmlns:dc="http://purl.org/dc/elements/1.1/"><metadata
     id="metadata4856"><rdf:RDF><cc:Work
         rdf:about=""><dc:format>image/svg+xml</dc:format><dc:type
           rdf:resource="http://purl.org/dc/dcmitype/StillImage" /><dc:title /></cc:Work></rdf:RDF></metadata><defs
     id="defs4854" /><sodipodi:namedview
     pagecolor="#ffffff"
     bordercolor="#666666"
     borderopacity="1"
     objecttolerance="10"
     gridtolerance="10"
     guidetolerance="10"
     inkscape:pageopacity="0"
     inkscape:pageshadow="2"
     inkscape:window-width="1344"
     inkscape:window-height="688"
     id="namedview4852"
     showgrid="false"
     inkscape:zoom="0.43232435"
     inkscape:cx="476.49409"
     inkscape:cy="415.19752"
     inkscape:window-x="7"
     inkscape:window-y="0"
     inkscape:window-maximized="0"
     inkscape:current-layer="svg4850"
     inkscape:document-rotation="0"
     inkscape:showpageshadow="2"
     inkscape:pagecheckerboard="0"
     inkscape:deskcolor="#d1d1d1" /><path
     id="path5414"
     style="color:#000000;font-style:normal;font-variant:normal;font-weight:normal;font-stretch:normal;font-size:medium;line-height:normal;font-family:sans-serif;font-variant-ligatures:normal;font-variant-position:normal;font-variant-caps:normal;font-variant-numeric:normal;font-variant-alternates:normal;font-variant-east-asian:normal;font-feature-settings:normal;font-variation-settings:normal;text-indent:0;text-align:start;text-decoration:none;text-decoration-line:none;text-decoration-style:solid;text-decoration-color:#000000;letter-spacing:normal;word-spacing:normal;text-transform:none;writing-mode:lr-tb;direction:ltr;text-orientation:mixed;dominant-baseline:auto;baseline-shift:baseline;text-anchor:start;white-space:normal;shape-padding:0;shape-margin:0;inline-size:0;clip-rule:nonzero;display:inline;overflow:visible;visibility:visible;isolation:auto;mix-blend-mode:normal;color-interpolation:sRGB;color-interpolation-filters:linearRGB;solid-color:#000000;solid-opacity:1;vector-effect:none;fill:#217eef;fill-opacity:1;fill-rule:nonzero;stroke:none;stroke-width:1.08696;stroke-linecap:butt;stroke-linejoin:miter;stroke-miterlimit:4;stroke-dasharray:none;stroke-dashoffset:0;stroke-opacity:1;color-rendering:auto;image-rendering:auto;shape-rendering:auto;text-rendering:auto;enable-background:accumulate;stop-color:#000000"
     d="M 321.05664 13.162109 C 319.61664 13.190109 318.17692 13.489337 316.82812 14.060547 C 309.90374 17.520073 304.15473 22.99276 297.74414 27.330078 C 214.38224 86.322757 121.06108 130.67695 22.626953 152.4668 C 16.656809 153.44786 11.593043 158.79285 11.470703 165.29883 C 7.776067 233.63738 13.549692 302.67215 30.041016 368.94531 C 52.600353 461.19075 95.49341 547.47326 152.69922 621.05273 C 195.02859 675.32083 244.40324 723.80545 299.99414 762.63477 C 307.21213 766.9979 315.33614 775.57076 324.14453 770.22656 C 375.15998 738.23885 420.37715 696.67219 460.72461 650.92383 C 526.10264 575.89857 575.8466 485.22767 602.07617 386.9668 C 621.77275 314.21347 628.64803 237.84612 624.39062 162.43359 C 624.21934 155.2822 617.97936 150.58177 611.78906 149.65234 C 509.46453 126.93306 413.01314 78.809973 327.86523 15.273438 C 325.86194 13.821209 323.45664 13.115469 321.05664 13.162109 z M 321.0625 43.570312 L 321.06836 43.570312 C 404.82168 105.24798 499.48659 151.38273 599.33984 174.90234 C 601.68874 240.14281 595.79363 305.90084 579.49805 368.97266 C 554.22267 468.73094 504.01119 560.87172 437.18945 636.10352 C 401.75988 676.48187 361.88062 712.62669 318.00977 742.41992 C 268.2379 707.92793 223.89936 665.17394 184.82422 617.90234 C 120.22911 539.54664 72.517431 445.00452 50.814453 343.46484 C 38.825215 289.04185 34.689158 232.91436 36.597656 177.12305 C 138.55515 153.00963 235.0825 105.84178 321.0625 43.570312 z M 320.89062 80.076172 L 320.89258 80.078125 C 320.89358 80.077275 320.89548 80.077172 320.89648 80.076172 L 320.89062 80.076172 z M 320.89258 80.078125 C 244.72094 136.53936 158.44737 178.90445 67.134766 199.11914 C 65.006058 244.48025 67.109971 290.17818 75.257812 334.81641 C 92.556575 434.18743 138.60542 526.84467 202.61328 601.58594 C 236.4523 640.59597 274.25509 676.19892 316.80469 704.33984 C 414.21092 638.01503 493.51097 540.34833 535.64453 425.92578 C 562.53475 353.40481 573.00797 274.66016 568.92188 197.02734 C 479.56583 177.43215 394.95608 136.07515 320.89258 80.078125 z M 311.57422 141.25977 L 375.50781 256.62305 L 335.125 256.62305 L 335.125 399.86133 L 414.97656 353.78125 L 414.97656 314.42773 L 398.57227 314.42773 L 398.57227 231.13867 L 482.46875 231.13867 L 482.46875 314.42773 L 462.07422 314.42773 L 462.07422 380.90039 L 335.12305 454.2168 L 335.12305 516.39453 C 353.0386 525.33559 364.56055 543.83593 364.56055 563.79102 C 364.56055 593.00943 340.78883 616.7793 311.57227 616.7793 C 282.35478 616.7793 258.58398 593.00943 258.58398 563.79102 C 258.58398 543.83593 270.10788 525.33466 288.02344 516.39453 L 288.02344 503.11328 L 161.07031 429.80859 L 161.07031 348.84961 C 147.42979 340.58375 138.99219 325.71529 138.99219 309.82812 C 138.99219 284.67019 159.4613 264.19727 184.62109 264.19727 C 209.78088 264.19727 230.25 284.67019 230.25 309.82812 C 230.25 325.71529 221.81333 340.58839 208.17188 348.84961 L 208.17188 402.69141 L 288.02344 448.79297 L 288.02344 256.62305 L 247.64062 256.62305 L 311.57422 141.25977 z " /><style
     type="text/css"
     id="style7162">
	.st0{fill:#000000;}
</style><g
     id="g7166"
     transform="matrix(0.92874915,0,0,0.92874915,72.971823,141.26029)">
	
</g></svg>
